<?xml version="1.0" encoding="utf-8"?>
<!-- Generator: Adobe Illustrator 26.0.1, SVG Export Plug-In . SVG Version: 6.00 Build 0)  -->
<svg version="1.1" id="Layer_1" xmlns="http://www.w3.org/2000/svg" xmlns:xlink="http://www.w3.org/1999/xlink" x="0px" y="0px"
	 viewBox="0 0 72 72" style="enable-background:new 0 0 72 72;" xml:space="preserve">
<style type="text/css">
	.st0{fill:#0D4E8A;stroke:#FFFFFF;stroke-width:3;stroke-miterlimit:10;}
	.st1{fill:#FFFFFF;}
	.st2{opacity:0.985;fill:#FFFFFF;}
</style>
<g>
	<path class="st0" d="M50.3,1.8H21.7c-10.98,0-19.9,8.93-19.9,19.9v28.59c0,10.98,8.93,19.9,19.9,19.9H50.3
		c10.98,0,19.9-8.93,19.9-19.9V21.7C70.2,10.73,61.27,1.8,50.3,1.8z"/>
	<g>
		<path class="st1" d="M40.98,37.42h-7.45v14.19h7.45V37.42z M33.26,36.26h8c0.24,0,0.47,0.1,0.63,0.27
			c0.16,0.16,0.25,0.38,0.25,0.62v14.72c0,0.24-0.1,0.46-0.25,0.62c-0.16,0.17-0.38,0.27-0.63,0.27h-8c-0.25,0-0.47-0.1-0.63-0.27
			c-0.16-0.16-0.25-0.38-0.25-0.62V37.15c0-0.24,0.1-0.46,0.25-0.62C32.79,36.36,33.01,36.26,33.26,36.26z"/>
		<path class="st1" d="M21.15,37.42h-7.45v14.19h7.45V37.42z M13.43,36.26h8c0.25,0,0.47,0.1,0.63,0.27
			c0.16,0.16,0.25,0.38,0.25,0.62v14.72c0,0.24-0.1,0.46-0.25,0.62c-0.16,0.17-0.38,0.27-0.63,0.27h-8c-0.25,0-0.47-0.1-0.63-0.27
			c-0.16-0.16-0.25-0.38-0.25-0.62V37.15c0-0.24,0.1-0.46,0.25-0.62C12.96,36.36,13.18,36.26,13.43,36.26z"/>
		<path class="st1" d="M21.15,18.39h-7.45v14.19h7.45V18.39z M13.43,17.23h8c0.25,0,0.47,0.1,0.63,0.27
			c0.16,0.16,0.25,0.38,0.25,0.62v14.73c0,0.24-0.1,0.46-0.25,0.62c-0.16,0.17-0.38,0.27-0.63,0.27h-8c-0.25,0-0.47-0.1-0.63-0.27
			c-0.16-0.16-0.25-0.38-0.25-0.62V18.12c0-0.24,0.1-0.46,0.25-0.62C12.96,17.34,13.18,17.23,13.43,17.23z"/>
		<path class="st1" d="M40.85,18.39H33.4v14.19h7.45V18.39z M33.12,17.23h8c0.24,0,0.47,0.1,0.63,0.27
			c0.16,0.16,0.25,0.38,0.25,0.62v14.73c0,0.24-0.1,0.46-0.25,0.62c-0.16,0.17-0.38,0.27-0.63,0.27h-8c-0.25,0-0.47-0.1-0.63-0.27
			c-0.16-0.16-0.25-0.38-0.25-0.62V18.12c0-0.24,0.1-0.46,0.25-0.62C32.66,17.34,32.88,17.23,33.12,17.23z"/>
		<path class="st2" d="M61.17,39.03c-0.29-0.35-1.4-0.4-1.4-0.4l-9.33,5.89l-8.25-7.88v8.33l6.91,6.08l2.9-0.24l9.45-10.41
			C61.45,40.4,61.53,39.45,61.17,39.03z"/>
		<path class="st2" d="M52,20.95l-2.9-0.24l-7.03,6.19v8.34l8.37-8l9.33,5.89c0,0,0.97-0.13,1.26-0.48
			c0.36-0.42,0.41-1.29,0.41-1.29L52,20.95z"/>
		<polygon class="st1" points="13.07,17.99 13.32,33.13 17.04,33.45 17.36,34.42 17.12,36.2 15.93,36.98 13.07,37.01 13.07,51.99 
			21.57,52.15 21.74,40.74 33.23,40.65 33.07,52.23 41.65,52.07 41.57,37.01 38.57,37.01 38.33,36.28 37.52,35.72 37.77,33.53 
			38.49,33.29 41.41,33.13 41.25,17.99 32.83,18.07 33.07,29.48 21.66,29.4 21.41,17.83 		"/>
	</g>
</g>
</svg>
