<?xml version="1.0" encoding="utf-8"?>
<!-- Generator: Adobe Illustrator 26.0.1, SVG Export Plug-In . SVG Version: 6.00 Build 0)  -->
<svg version="1.1" id="Layer_1" xmlns="http://www.w3.org/2000/svg" xmlns:xlink="http://www.w3.org/1999/xlink" x="0px" y="0px"
	 viewBox="0 0 72 72" style="enable-background:new 0 0 72 72;" xml:space="preserve">
<style type="text/css">
	.st0{fill:none;stroke:#08508B;stroke-width:0.25;stroke-miterlimit:10;}
	.st1{fill:#08508B;}
	.st2{fill:#FFFFFF;}
	.st3{opacity:0.985;fill:#FFFFFF;}
</style>
<g>
	<polygon class="st0" points="35.98,0.13 71.82,71.83 35.99,53.98 0.18,71.87 	"/>
	<polygon class="st1" points="35.98,2.5 69.5,69.46 35.99,52.79 2.5,69.5 	"/>
	<g>
		<path class="st2" d="M39.06,42.25h-3.85v7.34h3.85V42.25z M35.07,41.65h4.14c0.13,0,0.24,0.05,0.33,0.14
			c0.08,0.08,0.13,0.2,0.13,0.32v7.61c0,0.13-0.05,0.24-0.13,0.32c-0.08,0.09-0.2,0.14-0.33,0.14h-4.14c-0.13,0-0.24-0.05-0.33-0.14
			c-0.08-0.08-0.13-0.2-0.13-0.32v-7.61c0-0.13,0.05-0.24,0.13-0.32C34.82,41.7,34.94,41.65,35.07,41.65z"/>
		<path class="st2" d="M28.81,42.25h-3.85v7.34h3.85V42.25z M24.81,41.65h4.14c0.13,0,0.24,0.05,0.33,0.14
			c0.08,0.08,0.13,0.2,0.13,0.32v7.61c0,0.13-0.05,0.24-0.13,0.32c-0.08,0.09-0.2,0.14-0.33,0.14h-4.14c-0.13,0-0.24-0.05-0.33-0.14
			c-0.08-0.08-0.13-0.2-0.13-0.32v-7.61c0-0.13,0.05-0.24,0.13-0.32C24.57,41.7,24.69,41.65,24.81,41.65z"/>
		<path class="st2" d="M28.81,32.41h-3.85v7.33h3.85V32.41z M24.81,31.81h4.14c0.13,0,0.24,0.05,0.33,0.14
			c0.08,0.08,0.13,0.2,0.13,0.32v7.61c0,0.12-0.05,0.24-0.13,0.32c-0.08,0.09-0.2,0.14-0.33,0.14h-4.14c-0.13,0-0.24-0.05-0.33-0.14
			c-0.08-0.08-0.13-0.2-0.13-0.32v-7.61c0-0.12,0.05-0.24,0.13-0.32C24.57,31.87,24.69,31.81,24.81,31.81z"/>
		<path class="st2" d="M38.99,32.41h-3.85v7.33h3.85V32.41z M35,31.81h4.14c0.13,0,0.24,0.05,0.33,0.14
			c0.08,0.08,0.13,0.2,0.13,0.32v7.61c0,0.12-0.05,0.24-0.13,0.32c-0.08,0.09-0.2,0.14-0.33,0.14H35c-0.13,0-0.24-0.05-0.33-0.14
			c-0.08-0.08-0.13-0.2-0.13-0.32v-7.61c0-0.12,0.05-0.24,0.13-0.32C34.75,31.87,34.87,31.81,35,31.81z"/>
		<path class="st3" d="M49.5,43.08c-0.15-0.18-0.72-0.21-0.72-0.21l-4.82,3.04l-4.26-4.07v4.31l3.57,3.14l1.5-0.12l4.89-5.38
			C49.64,43.79,49.68,43.3,49.5,43.08z"/>
		<path class="st3" d="M44.75,33.73l-1.5-0.12l-3.64,3.2v4.31l4.33-4.14l4.82,3.04c0,0,0.5-0.07,0.65-0.25
			c0.19-0.22,0.21-0.67,0.21-0.67L44.75,33.73z"/>
		<polygon class="st2" points="24.63,32.2 24.76,40.03 26.68,40.2 26.85,40.7 26.72,41.62 26.11,42.02 24.63,42.04 24.63,49.78 
			29.02,49.87 29.11,43.97 35.05,43.92 34.97,49.91 39.4,49.83 39.36,42.04 37.81,42.04 37.69,41.66 37.27,41.37 37.4,40.24 
			37.77,40.11 39.28,40.03 39.2,32.2 34.84,32.25 34.97,38.15 29.07,38.11 28.94,32.12 		"/>
	</g>
</g>
</svg>
