<?xml version="1.0" encoding="utf-8"?>
<!-- Generator: Adobe Illustrator 26.0.1, SVG Export Plug-In . SVG Version: 6.00 Build 0)  -->
<svg version="1.1" id="Layer_1" xmlns="http://www.w3.org/2000/svg" xmlns:xlink="http://www.w3.org/1999/xlink" x="0px" y="0px"
	 viewBox="0 0 215 215" style="enable-background:new 0 0 215 215;" xml:space="preserve">
<style type="text/css">
	.st0{fill:none;stroke:#08508B;stroke-width:8;stroke-miterlimit:10;}
	.st1{fill:#0D4E8A;}
	.st2{fill:none;stroke:#0D4E8A;stroke-width:3;stroke-miterlimit:10;}
</style>
<g>
	<g>
		<path class="st0" d="M211.5,151.5c0,33-27,60-60,60h-88c-33,0-60-27-60-60v-88c0-33,27-60,60-60h88c33,0,60,27,60,60V151.5z"/>
	</g>
	<g>
		<path class="st1" d="M120.03,115.11H96.6v44.64h23.43V115.11z M95.73,111.46h25.18c0.77,0,1.47,0.32,1.98,0.84
			c0.49,0.51,0.8,1.2,0.8,1.97v46.32c0,0.76-0.31,1.46-0.8,1.97c-0.51,0.52-1.21,0.84-1.98,0.84H95.73c-0.78,0-1.47-0.32-1.98-0.84
			c-0.49-0.51-0.8-1.2-0.8-1.97v-46.32c0-0.76,0.3-1.46,0.8-1.97C94.25,111.78,94.95,111.46,95.73,111.46z"/>
		<path class="st1" d="M57.65,115.11H34.21v44.64h23.43V115.11z M33.34,111.46h25.18c0.78,0,1.47,0.32,1.98,0.84
			c0.49,0.51,0.8,1.2,0.8,1.97v46.32c0,0.76-0.3,1.46-0.8,1.97c-0.5,0.52-1.2,0.84-1.98,0.84H33.34c-0.77,0-1.47-0.32-1.98-0.84
			c-0.49-0.51-0.8-1.2-0.8-1.97v-46.32c0-0.76,0.31-1.46,0.8-1.97C31.87,111.78,32.57,111.46,33.34,111.46z"/>
		<path class="st1" d="M57.65,55.26H34.21v44.63h23.43V55.26z M33.34,51.6h25.18c0.78,0,1.47,0.32,1.98,0.84
			c0.49,0.51,0.8,1.2,0.8,1.96v46.33c0,0.76-0.3,1.45-0.8,1.96c-0.5,0.52-1.2,0.84-1.98,0.84H33.34c-0.77,0-1.47-0.32-1.98-0.84
			c-0.49-0.51-0.8-1.2-0.8-1.96V54.4c0-0.76,0.31-1.45,0.8-1.96C31.87,51.93,32.57,51.6,33.34,51.6z"/>
		<path class="st1" d="M119.61,55.26H96.17v44.63h23.44V55.26z M95.3,51.6h25.18c0.77,0,1.47,0.32,1.98,0.84
			c0.49,0.51,0.8,1.2,0.8,1.96v46.33c0,0.76-0.31,1.45-0.8,1.96c-0.51,0.52-1.21,0.84-1.98,0.84H95.3c-0.78,0-1.47-0.32-1.98-0.84
			c-0.49-0.51-0.8-1.2-0.8-1.96V54.4c0-0.76,0.3-1.45,0.8-1.96C93.83,51.93,94.53,51.6,95.3,51.6z"/>
		<polygon class="st1" points="39.1,126.29 39.1,113.11 39.1,112.49 39.65,112.19 44.48,109.56 44.48,104.94 39.68,102.46 
			39.1,102.16 39.1,101.52 39.1,88.94 41.21,88.94 41.21,100.88 46.01,103.37 46.59,103.67 46.59,104.3 46.59,110.18 46.59,110.8 
			46.04,111.1 41.21,113.73 41.21,126.29 		"/>
		<polygon class="st1" points="113.61,126.29 113.61,113.73 108.79,111.1 108.23,110.8 108.23,110.18 108.23,104.3 108.23,103.67 
			108.8,103.37 113.61,100.88 113.61,88.94 115.71,88.94 115.71,101.52 115.71,102.16 115.15,102.46 110.34,104.94 110.34,109.56 
			115.16,112.19 115.71,112.49 115.71,113.11 115.71,126.29 		"/>
		<line class="st2" x1="48.37" y1="91.15" x2="48.37" y2="88.71"/>
		<line class="st2" x1="54.69" y1="90.56" x2="54.69" y2="88.71"/>
		<line class="st2" x1="100.22" y1="90.33" x2="100.22" y2="87.89"/>
		<rect x="105.94" y="88.02" class="st1" width="1.05" height="2.44"/>
		<rect x="39.1" y="66.48" class="st1" width="2.11" height="22.46"/>
		<polygon class="st1" points="47.77,88.84 47.77,82.19 39.81,75.04 40.51,74.26 48.65,81.56 48.83,81.72 48.83,81.95 48.83,88.84 
					"/>
		<polygon class="st1" points="54.22,88.84 54.22,74.64 45.27,66.78 45.79,66.18 54.88,74.16 55.02,74.28 55.02,74.46 55.02,88.84 
					"/>
		<path class="st1" d="M46.67,66.48c0,0.53-0.43,0.96-0.96,0.96s-0.96-0.43-0.96-0.96c0-0.53,0.43-0.96,0.96-0.96
			S46.67,65.94,46.67,66.48"/>
		<path class="st1" d="M46.02,66.78c0.08-0.08,0.12-0.19,0.12-0.3c0-0.12-0.05-0.23-0.12-0.31c-0.08-0.08-0.19-0.12-0.31-0.12
			c-0.12,0-0.23,0.04-0.31,0.12c-0.08,0.08-0.12,0.19-0.12,0.31c0,0.12,0.05,0.23,0.12,0.3c0.08,0.08,0.19,0.13,0.31,0.13
			C45.83,66.91,45.94,66.86,46.02,66.78 M47.2,66.48c0,0.41-0.17,0.78-0.43,1.05c-0.26,0.27-0.64,0.43-1.05,0.43
			c-0.41,0-0.78-0.16-1.05-0.43c-0.27-0.27-0.44-0.64-0.44-1.05c0-0.41,0.17-0.78,0.44-1.05c0.27-0.27,0.64-0.44,1.05-0.44
			c0.41,0,0.78,0.17,1.05,0.44C47.03,65.7,47.2,66.07,47.2,66.48z"/>
		<path class="st1" d="M41.49,66.48c0,0.69-0.56,1.25-1.25,1.25c-0.69,0-1.25-0.56-1.25-1.25s0.56-1.25,1.25-1.25
			C40.92,65.23,41.49,65.79,41.49,66.48"/>
		<path class="st1" d="M40.63,66.88c0.1-0.1,0.16-0.24,0.16-0.4c0-0.16-0.06-0.3-0.16-0.4c-0.1-0.1-0.24-0.17-0.4-0.17
			c-0.16,0-0.3,0.06-0.41,0.17c-0.1,0.1-0.16,0.24-0.16,0.4c0,0.16,0.06,0.3,0.16,0.4l0,0c0.1,0.1,0.24,0.16,0.4,0.16
			C40.39,67.04,40.53,66.98,40.63,66.88 M42.17,66.48c0,0.53-0.22,1.02-0.57,1.37c-0.35,0.35-0.84,0.57-1.37,0.57
			c-0.54,0-1.02-0.22-1.37-0.57v0c-0.35-0.35-0.57-0.84-0.57-1.37c0-0.53,0.22-1.02,0.57-1.37c0.35-0.35,0.83-0.57,1.37-0.57
			c0.53,0,1.01,0.22,1.37,0.57C41.96,65.46,42.17,65.94,42.17,66.48z"/>
		<rect x="113.61" y="66.48" class="st1" width="2.11" height="22.46"/>
		<polygon class="st1" points="105.99,88.84 105.99,81.95 105.99,81.72 106.17,81.56 114.32,74.26 115.02,75.04 107.05,82.19 
			107.05,88.84 		"/>
		<polygon class="st1" points="99.8,88.84 99.8,74.46 99.8,74.28 99.94,74.16 109.03,66.18 109.55,66.78 100.59,74.64 100.59,88.84 
					"/>
		<path class="st1" d="M108.15,66.48c0,0.53,0.43,0.96,0.96,0.96c0.53,0,0.96-0.43,0.96-0.96c0-0.53-0.43-0.96-0.96-0.96
			C108.57,65.52,108.15,65.94,108.15,66.48"/>
		<path class="st1" d="M108.05,67.53c-0.27-0.27-0.43-0.64-0.43-1.05c0-0.41,0.17-0.78,0.43-1.05c0.27-0.27,0.64-0.44,1.05-0.44
			c0.41,0,0.78,0.17,1.04,0.44c0.27,0.27,0.44,0.64,0.44,1.05c0,0.41-0.17,0.78-0.43,1.05c-0.27,0.27-0.64,0.43-1.05,0.43
			C108.7,67.96,108.32,67.8,108.05,67.53 M108.67,66.48c0,0.12,0.05,0.23,0.12,0.3c0.08,0.08,0.19,0.13,0.31,0.13
			c0.12,0,0.23-0.05,0.3-0.13c0.08-0.08,0.13-0.19,0.13-0.3c0-0.12-0.05-0.23-0.13-0.31c-0.08-0.08-0.18-0.12-0.3-0.12
			c-0.12,0-0.23,0.04-0.31,0.12C108.72,66.25,108.67,66.36,108.67,66.48z"/>
		<path class="st1" d="M113.33,66.48c0,0.69,0.56,1.25,1.25,1.25s1.25-0.56,1.25-1.25s-0.56-1.25-1.25-1.25
			S113.33,65.79,113.33,66.48"/>
		<path class="st1" d="M113.21,67.85L113.21,67.85c-0.35-0.35-0.56-0.83-0.56-1.37c0-0.53,0.21-1.02,0.57-1.37
			c0.35-0.35,0.84-0.57,1.37-0.57c0.54,0,1.02,0.22,1.37,0.57c0.35,0.35,0.57,0.83,0.57,1.37c0,0.53-0.21,1.02-0.57,1.37
			c-0.35,0.35-0.84,0.57-1.37,0.57C114.05,68.41,113.57,68.2,113.21,67.85 M114.02,66.48c0,0.16,0.06,0.3,0.17,0.4v0
			c0.1,0.1,0.24,0.16,0.4,0.16c0.16,0,0.3-0.06,0.4-0.16c0.1-0.1,0.17-0.24,0.17-0.4c0-0.16-0.06-0.3-0.17-0.4
			c-0.1-0.1-0.24-0.17-0.4-0.17c-0.16,0-0.3,0.06-0.4,0.17C114.08,66.18,114.02,66.32,114.02,66.48z"/>
		<rect x="47.77" y="123.84" class="st1" width="1.05" height="2.44"/>
		<line class="st1" x1="54.62" y1="124.44" x2="54.62" y2="126.28"/>
		<line class="st1" x1="100.15" y1="124.66" x2="100.15" y2="127.1"/>
		<rect x="105.94" y="124.66" class="st1" width="1.05" height="2.44"/>
		<rect x="39.1" y="126.18" class="st1" width="2.11" height="22.46"/>
		<polygon class="st1" points="48.83,126.28 48.83,133.17 48.83,133.4 48.65,133.56 40.51,140.86 39.81,140.08 47.77,132.94 
			47.77,126.28 		"/>
		<polygon class="st1" points="55.02,126.28 55.02,140.66 55.02,140.83 54.88,140.96 45.79,148.94 45.27,148.34 54.22,140.48 
			54.22,126.28 		"/>
		<path class="st1" d="M46.67,148.65c0-0.53-0.43-0.96-0.96-0.96s-0.96,0.43-0.96,0.96c0,0.53,0.43,0.96,0.96,0.96
			S46.67,149.18,46.67,148.65"/>
		<path class="st1" d="M46.76,147.6c0.27,0.27,0.43,0.64,0.43,1.05c0,0.41-0.17,0.78-0.43,1.05c-0.26,0.27-0.64,0.43-1.05,0.43
			c-0.41,0-0.78-0.17-1.05-0.43c-0.27-0.27-0.44-0.64-0.44-1.05c0-0.41,0.17-0.78,0.44-1.05c0.27-0.27,0.64-0.44,1.05-0.44
			C46.12,147.16,46.5,147.33,46.76,147.6 M46.15,148.65c0-0.12-0.05-0.23-0.12-0.31c-0.08-0.08-0.19-0.13-0.31-0.13
			c-0.12,0-0.23,0.05-0.31,0.13c-0.08,0.08-0.12,0.18-0.12,0.31c0,0.12,0.05,0.23,0.12,0.3c0.08,0.08,0.19,0.13,0.31,0.13
			c0.12,0,0.23-0.05,0.31-0.13C46.1,148.87,46.15,148.76,46.15,148.65z"/>
		<path class="st1" d="M41.49,148.65c0-0.69-0.56-1.25-1.25-1.25c-0.69,0-1.25,0.56-1.25,1.25c0,0.69,0.56,1.25,1.25,1.25
			C40.92,149.9,41.49,149.33,41.49,148.65"/>
		<path class="st1" d="M41.61,147.27c0.35,0.35,0.57,0.84,0.57,1.37c0,0.53-0.22,1.02-0.57,1.36c-0.35,0.36-0.84,0.57-1.37,0.57
			c-0.54,0-1.02-0.22-1.37-0.57v0c-0.35-0.35-0.57-0.83-0.57-1.36c0-0.54,0.22-1.02,0.57-1.37c0.35-0.35,0.83-0.57,1.37-0.57
			C40.77,146.71,41.25,146.92,41.61,147.27 M40.8,148.65c0-0.16-0.06-0.3-0.16-0.4c-0.1-0.1-0.24-0.16-0.4-0.16
			c-0.16,0-0.3,0.06-0.41,0.16c-0.1,0.1-0.16,0.24-0.16,0.4c0,0.15,0.06,0.3,0.16,0.4v0c0.1,0.1,0.24,0.16,0.4,0.16
			c0.15,0,0.29-0.06,0.4-0.16C40.74,148.94,40.8,148.8,40.8,148.65z"/>
		<rect x="113.61" y="126.18" class="st1" width="2.11" height="22.46"/>
		<polygon class="st1" points="107.05,126.28 107.05,132.94 115.02,140.08 114.32,140.86 106.17,133.56 105.99,133.4 105.99,133.17 
			105.99,126.28 		"/>
		<polygon class="st1" points="100.59,126.28 100.59,140.48 109.55,148.34 109.03,148.94 99.94,140.96 99.8,140.83 99.8,140.66 
			99.8,126.28 		"/>
		<path class="st1" d="M108.15,148.65c0-0.53,0.43-0.96,0.96-0.96c0.53,0,0.96,0.43,0.96,0.96c0,0.53-0.43,0.96-0.96,0.96
			C108.57,149.6,108.15,149.18,108.15,148.65"/>
		<path class="st1" d="M108.8,148.34c-0.08,0.08-0.12,0.18-0.12,0.31c0,0.12,0.05,0.23,0.13,0.3v0c0.08,0.07,0.18,0.13,0.31,0.13
			c0.12,0,0.23-0.05,0.3-0.13c0.08-0.08,0.12-0.19,0.12-0.3c0-0.12-0.04-0.23-0.12-0.31c-0.08-0.08-0.18-0.13-0.3-0.13
			C108.98,148.21,108.88,148.26,108.8,148.34 M107.62,148.65c0-0.41,0.17-0.78,0.43-1.05c0.27-0.27,0.64-0.44,1.05-0.44
			c0.41,0,0.78,0.17,1.04,0.44c0.27,0.27,0.44,0.64,0.44,1.05c0,0.41-0.17,0.78-0.43,1.05c-0.27,0.27-0.64,0.43-1.05,0.43
			c-0.41,0-0.78-0.17-1.05-0.43l0,0C107.79,149.42,107.62,149.06,107.62,148.65z"/>
		<path class="st1" d="M113.33,148.65c0-0.69,0.56-1.25,1.25-1.25s1.25,0.56,1.25,1.25c0,0.69-0.56,1.25-1.25,1.25
			S113.33,149.33,113.33,148.65"/>
		<path class="st1" d="M114.18,148.25c-0.1,0.1-0.16,0.24-0.16,0.4c0,0.15,0.06,0.3,0.17,0.4v0c0.1,0.1,0.24,0.16,0.4,0.16
			c0.16,0,0.3-0.06,0.4-0.16c0.1-0.1,0.17-0.24,0.17-0.4c0-0.16-0.06-0.3-0.17-0.4c-0.1-0.1-0.24-0.16-0.4-0.16
			C114.43,148.08,114.29,148.14,114.18,148.25 M112.65,148.65c0-0.54,0.21-1.02,0.57-1.37c0.35-0.35,0.84-0.57,1.37-0.57
			c0.54,0,1.02,0.22,1.37,0.57c0.35,0.35,0.57,0.84,0.57,1.37c0,0.53-0.21,1.02-0.57,1.36c-0.35,0.36-0.84,0.57-1.37,0.57
			c-0.53,0-1.01-0.22-1.37-0.57v0C112.86,149.66,112.65,149.18,112.65,148.65z"/>
		<path class="st1" d="M183.54,120.18c-0.93-1.09-4.39-1.26-4.39-1.26l-29.36,18.52l-25.95-24.79v26.2l21.73,19.14l9.11-0.75
			l29.73-32.74C184.41,124.5,184.67,121.51,183.54,120.18z M153.01,152.89l-5.52-0.06l-2.71-4.82l2.82-4.76l5.52,0.06l2.71,4.82
			L153.01,152.89z M182.4,123.91l-1.32,2.22l-0.14,0.24l-0.29,0l-2.58-0.03l-0.29,0l-0.14-0.25l-1.27-2.25l-0.14-0.25l0.14-0.25
			l1.32-2.22l0.14-0.25h0.29l2.58,0.03H181l0.14,0.25l1.27,2.25l0.14,0.25L182.4,123.91z"/>
		<path class="st1" d="M154.68,63.29l-9.11-0.75l-22.13,19.49v26.23l26.35-25.17l29.36,18.52c0,0,3.04-0.41,3.96-1.5
			c1.13-1.33,1.3-4.07,1.3-4.07L154.68,63.29z M155.92,72.56l-2.82,4.76l-0.17,0.3l-0.35-0.01l-5.53-0.06l-0.35,0l-0.17-0.3
			l-2.71-4.82l-0.17-0.3l0.18-0.3l2.82-4.76l0.18-0.29l0.34,0l5.53,0.06l0.35,0l0.17,0.3l2.71,4.82l0.17,0.3L155.92,72.56z
			 M182.82,96.92l-1.32,2.22l-0.14,0.25l-0.29,0l-2.58-0.03l-0.29,0l-0.14-0.25l-1.27-2.25l-0.14-0.25l0.14-0.25l1.32-2.22
			l0.14-0.25l0.29,0.01l2.58,0.03l0.29,0l0.14,0.25l1.27,2.25l0.14,0.25L182.82,96.92z"/>
		<g>
			<path class="st1" d="M71.53,115.91c0.29-0.23,1.15-1.09,1.39-1.39c0.11-0.14,0.22-0.25,0.25-0.25c0.03,0,0.31,0.11,0.63,0.25
				c0.32,0.14,0.85,0.36,1.18,0.5l0.61,0.25l0.29-0.44c0.3-0.45,0.88-1.53,0.84-1.56c-0.01-0.01-0.46-0.35-1-0.75
				c-0.54-0.4-1.01-0.75-1.04-0.78c-0.05-0.04-0.05-0.07,0.02-0.22c0.2-0.48,0.48-1.5,0.58-2.17c0.03-0.2,0.03-0.2,0.67-0.26
				c0.27-0.03,0.53-0.06,0.58-0.07c0.05-0.01,0.37-0.05,0.73-0.09c0.36-0.04,0.66-0.08,0.67-0.09c0.03-0.04,0.06-1.87,0.03-2.1
				l-0.03-0.19l-0.37-0.04c-0.54-0.07-1.49-0.18-1.79-0.21c-0.45-0.04-0.46-0.05-0.49-0.23c-0.1-0.67-0.37-1.69-0.58-2.16
				c-0.04-0.09-0.07-0.17-0.07-0.18c0-0.01,0.46-0.36,1.02-0.78c0.56-0.42,1.04-0.78,1.05-0.81c0.05-0.09-0.67-1.39-1.1-1.98
				c-0.02-0.02-0.06-0.02-0.11,0.01c-0.17,0.09-2.26,0.99-2.31,0.98c-0.03,0-0.14-0.11-0.25-0.25c-0.26-0.32-1.04-1.1-1.35-1.36
				c-0.14-0.11-0.25-0.22-0.25-0.24c0-0.04,0.89-2.14,0.98-2.3c0.02-0.04,0.04-0.09,0.04-0.1c0-0.01-0.45-0.31-0.88-0.57
				c-0.33-0.21-1.09-0.57-1.13-0.55c-0.02,0.01-0.38,0.49-0.81,1.05c-0.58,0.78-0.79,1.02-0.84,1c-0.53-0.22-1.67-0.53-2.29-0.62
				c-0.2-0.03-0.17,0.06-0.3-1.07c-0.05-0.47-0.11-1.01-0.14-1.21l-0.04-0.36l-0.17-0.03c-0.21-0.03-1.76-0.03-1.98,0
				c-0.16,0.03-0.16,0.03-0.19,0.28c-0.02,0.14-0.07,0.56-0.11,0.94c-0.05,0.38-0.1,0.83-0.11,1c-0.02,0.17-0.05,0.34-0.06,0.37
				c-0.02,0.03-0.15,0.07-0.3,0.09c-0.49,0.07-1.29,0.28-1.85,0.49c-0.2,0.08-0.39,0.12-0.4,0.1c-0.03-0.04-0.73-0.97-1.22-1.62
				c-0.17-0.24-0.34-0.43-0.36-0.43c-0.06,0-1.09,0.55-1.35,0.72c-0.12,0.08-0.31,0.2-0.42,0.28l-0.2,0.14l0.19,0.45
				c0.1,0.25,0.33,0.78,0.5,1.18c0.17,0.4,0.32,0.75,0.32,0.77c0,0.02-0.07,0.1-0.16,0.18c-0.32,0.27-1.21,1.16-1.42,1.42
				c-0.12,0.14-0.24,0.26-0.26,0.26c-0.03,0-0.58-0.23-1.22-0.51c-0.65-0.28-1.18-0.51-1.18-0.5c0,0.01-0.06,0.08-0.12,0.17
				c-0.24,0.33-1.02,1.71-1.02,1.8c0,0.02,0.47,0.38,1.05,0.81c0.81,0.6,1.04,0.81,1.02,0.86c-0.23,0.6-0.52,1.64-0.58,2.11
				c-0.02,0.14-0.06,0.28-0.09,0.32c-0.03,0.03-0.21,0.07-0.39,0.09c-0.29,0.03-0.93,0.1-1.85,0.21l-0.36,0.04l-0.03,0.4
				c-0.04,0.51-0.04,0.98,0,1.5l0.03,0.4l0.45,0.05c0.25,0.03,0.67,0.08,0.94,0.12c0.27,0.04,0.64,0.08,0.84,0.09
				c0.4,0.03,0.41,0.04,0.46,0.42c0.05,0.37,0.23,1.06,0.4,1.57c0.09,0.25,0.17,0.49,0.18,0.53c0.02,0.05-0.26,0.28-1.01,0.84
				c-0.57,0.42-1.05,0.78-1.06,0.78c-0.05,0.04,0.73,1.44,1.02,1.84c0.06,0.09,0.11,0.16,0.12,0.17c0,0.01,0.53-0.22,1.18-0.5
				c0.65-0.28,1.2-0.51,1.23-0.51c0.03,0,0.16,0.12,0.28,0.28c0.25,0.31,1.09,1.14,1.38,1.37c0.11,0.08,0.19,0.17,0.19,0.2
				c0,0.03-0.23,0.59-0.5,1.23l-0.51,1.18l0.16,0.12c0.24,0.17,1.19,0.72,1.53,0.9c0.2,0.1,0.32,0.13,0.34,0.1
				c0.02-0.03,0.37-0.5,0.79-1.06c0.54-0.72,0.78-1.01,0.82-0.99c0.04,0.01,0.28,0.09,0.52,0.18c0.53,0.19,1.23,0.37,1.59,0.41
				c0.14,0.01,0.28,0.05,0.32,0.08c0.04,0.03,0.08,0.22,0.11,0.54c0.03,0.27,0.08,0.71,0.11,0.98c0.03,0.27,0.08,0.62,0.09,0.79
				l0.03,0.3l0.19,0.02c0.33,0.03,1.57,0.03,1.85,0l0.27-0.03l0.04-0.36c0.13-0.99,0.23-1.89,0.23-2.02c0-0.2,0.09-0.26,0.37-0.3
				c0.45-0.05,1.59-0.37,2.13-0.58c0.06-0.02,0.26,0.22,0.86,1.02c0.43,0.58,0.8,1.05,0.81,1.05c0.09,0,1.48-0.78,1.8-1.02
				c0.09-0.06,0.16-0.12,0.17-0.12c0-0.01-0.22-0.54-0.5-1.19c-0.28-0.65-0.51-1.2-0.51-1.22C71.31,116.1,71.41,116,71.53,115.91z
				 M65.94,115.41c-0.38,0.06-1.49,0.12-1.62,0.09c-0.03-0.01-0.28-0.04-0.54-0.07c-0.49-0.06-0.77-0.12-1.34-0.3
				c-0.55-0.17-0.71-0.24-1.16-0.46c-1.47-0.74-2.73-2-3.48-3.5c-0.2-0.38-0.24-0.49-0.43-1.05c-0.34-0.98-0.47-2.43-0.32-3.44
				c0.07-0.49,0.25-1.2,0.37-1.52c0.05-0.14,0.11-0.3,0.13-0.36c0.07-0.23,0.5-1.04,0.73-1.37c1.13-1.68,2.79-2.85,4.71-3.3
				c0.44-0.1,1.37-0.22,1.78-0.22c0.42,0,1.34,0.12,1.8,0.23c2.43,0.57,4.47,2.33,5.41,4.64c0.6,1.48,0.74,3.11,0.39,4.65
				C71.65,112.55,69.12,114.9,65.94,115.41z"/>
			<path class="st1" d="M64.78,100.49c-0.83,0-1.54,0.1-2.24,0.34c-1.6,0.54-2.88,1.51-3.82,2.91c-0.96,1.43-1.36,3.26-1.12,4.98
				c0.17,1.22,0.64,2.33,1.36,3.29c1.17,1.56,2.87,2.58,4.77,2.86c0.52,0.07,1.49,0.07,2.03,0c3.22-0.44,5.79-3.06,6.17-6.27
				c0.27-2.25-0.48-4.41-2.07-6C68.47,101.21,66.74,100.5,64.78,100.49z M70.4,110.42c-0.3,0.64-0.61,1.08-1.1,1.59
				c-1.1,1.16-2.42,1.79-4.08,1.95c-0.27,0.03-0.52,0.04-0.55,0.04c-0.04,0-0.14-0.01-0.23-0.02c-1.13-0.1-1.93-0.35-2.81-0.84
				c-1.2-0.68-2.14-1.76-2.67-3.06c-0.73-1.79-0.59-3.83,0.38-5.5c0.81-1.39,2.14-2.44,3.68-2.88c0.51-0.14,0.63-0.16,1.26-0.23
				c1.06-0.1,2.38,0.17,3.34,0.67c1.08,0.56,2.12,1.59,2.66,2.63C71.22,106.55,71.26,108.61,70.4,110.42z"/>
			<path class="st1" d="M99.99,106.14c0.32-0.13,0.86-0.34,1.19-0.48l0.61-0.25l-0.11-0.52c-0.11-0.53-0.46-1.7-0.52-1.7
				c-0.02,0-0.58,0.08-1.24,0.18c-0.67,0.1-1.24,0.18-1.29,0.18c-0.06,0.01-0.09-0.01-0.15-0.17c-0.19-0.48-0.73-1.4-1.13-1.95
				c-0.12-0.16-0.12-0.16,0.29-0.65c0.17-0.21,0.34-0.42,0.37-0.46c0.03-0.04,0.23-0.3,0.45-0.58c0.22-0.28,0.4-0.52,0.41-0.54
				c0-0.05-1.28-1.37-1.47-1.51l-0.15-0.11l-0.29,0.22c-0.43,0.33-1.17,0.93-1.41,1.12c-0.35,0.29-0.36,0.29-0.51,0.18
				c-0.54-0.4-1.46-0.93-1.94-1.12c-0.09-0.04-0.17-0.07-0.18-0.08c0-0.01,0.07-0.58,0.17-1.27c0.1-0.69,0.18-1.29,0.17-1.31
				c-0.02-0.1-1.45-0.51-2.17-0.62c-0.03-0.01-0.06,0.03-0.08,0.08c-0.05,0.18-0.9,2.3-0.94,2.33c-0.02,0.02-0.18,0.02-0.35,0
				c-0.41-0.04-1.5-0.04-1.91,0c-0.17,0.02-0.33,0.02-0.35,0c-0.03-0.03-0.88-2.14-0.93-2.33c-0.01-0.04-0.03-0.09-0.04-0.1
				c-0.01-0.01-0.54,0.1-1.03,0.21c-0.38,0.09-1.17,0.36-1.18,0.41c0,0.03,0.07,0.62,0.17,1.31c0.14,0.97,0.17,1.28,0.12,1.3
				c-0.53,0.22-1.55,0.8-2.06,1.18c-0.16,0.12-0.08,0.16-0.97-0.55c-0.37-0.29-0.8-0.63-0.95-0.76l-0.29-0.22l-0.13,0.1
				c-0.18,0.13-1.28,1.22-1.4,1.4c-0.09,0.13-0.09,0.13,0.06,0.33c0.09,0.11,0.35,0.44,0.59,0.74c0.23,0.3,0.52,0.66,0.63,0.79
				c0.11,0.13,0.21,0.27,0.22,0.31c0,0.04-0.06,0.16-0.14,0.28c-0.3,0.4-0.71,1.11-0.96,1.65c-0.09,0.2-0.19,0.36-0.21,0.36
				c-0.05,0-1.2-0.17-2.01-0.29c-0.29-0.04-0.55-0.07-0.56-0.05c-0.04,0.03-0.38,1.16-0.45,1.46c-0.03,0.14-0.08,0.36-0.1,0.49
				l-0.05,0.24l0.45,0.19c0.24,0.1,0.78,0.32,1.19,0.48c0.41,0.16,0.75,0.3,0.77,0.32c0.02,0.02,0.02,0.13,0.01,0.25
				c-0.04,0.41-0.04,1.66,0,2.01c0.02,0.19,0.02,0.35,0,0.37c-0.02,0.02-0.57,0.25-1.23,0.5c-0.66,0.26-1.19,0.47-1.19,0.48
				c0,0.01,0.01,0.1,0.03,0.2c0.06,0.4,0.49,1.93,0.55,2c0.01,0.01,0.6-0.07,1.31-0.18c1-0.14,1.31-0.17,1.33-0.11
				c0.26,0.6,0.79,1.53,1.08,1.91c0.09,0.11,0.16,0.24,0.16,0.29c0,0.05-0.09,0.2-0.21,0.33c-0.19,0.23-0.58,0.73-1.16,1.46
				l-0.23,0.29l0.27,0.31c0.33,0.39,0.67,0.72,1.05,1.06l0.31,0.27l0.35-0.28c0.2-0.16,0.53-0.42,0.75-0.59
				c0.21-0.17,0.51-0.4,0.66-0.53c0.3-0.25,0.32-0.25,0.62-0.02c0.29,0.23,0.91,0.59,1.39,0.83c0.24,0.12,0.47,0.23,0.5,0.25
				c0.05,0.02,0.01,0.39-0.12,1.31c-0.11,0.71-0.19,1.3-0.2,1.31c0,0.06,1.53,0.51,2.03,0.58c0.11,0.02,0.2,0.03,0.2,0.04
				c0,0,0.22-0.54,0.48-1.19c0.26-0.65,0.49-1.21,0.51-1.23c0.02-0.02,0.2-0.02,0.39,0c0.39,0.04,1.57,0.04,1.94-0.01
				c0.13-0.02,0.25-0.01,0.28,0.01c0.02,0.02,0.25,0.57,0.51,1.23l0.47,1.19l0.2-0.03c0.29-0.04,1.35-0.32,1.72-0.45
				c0.22-0.07,0.32-0.13,0.31-0.16c-0.01-0.03-0.1-0.62-0.2-1.31c-0.13-0.9-0.16-1.26-0.12-1.28c0.04-0.02,0.26-0.13,0.5-0.25
				c0.51-0.24,1.13-0.61,1.41-0.84c0.11-0.09,0.23-0.16,0.28-0.16c0.06-0.01,0.21,0.1,0.46,0.3c0.21,0.17,0.56,0.45,0.77,0.61
				c0.22,0.17,0.5,0.39,0.63,0.49l0.23,0.19l0.14-0.12c0.26-0.21,1.13-1.08,1.31-1.3l0.17-0.21l-0.22-0.29
				c-0.61-0.79-1.18-1.5-1.27-1.59c-0.14-0.14-0.13-0.25,0.06-0.47c0.28-0.35,0.87-1.39,1.09-1.92c0.02-0.06,0.33-0.03,1.33,0.11
				c0.72,0.1,1.3,0.18,1.32,0.18c0.06-0.07,0.49-1.6,0.55-2c0.01-0.11,0.03-0.2,0.03-0.2c0-0.01-0.53-0.22-1.19-0.48
				c-0.66-0.26-1.21-0.49-1.23-0.5c-0.02-0.02-0.02-0.15,0-0.3c0.04-0.37,0.04-1.58,0-1.97c-0.02-0.17-0.02-0.33,0-0.35
				C99.38,106.39,99.67,106.27,99.99,106.14z M95.07,112.32c-0.23,0.32-0.97,1.14-1.09,1.21c-0.03,0.02-0.23,0.17-0.43,0.33
				c-0.38,0.31-0.63,0.47-1.15,0.74c-0.51,0.27-0.67,0.33-1.16,0.49c-1.56,0.52-3.35,0.52-4.94-0.01c-0.41-0.13-0.52-0.18-1.05-0.43
				c-0.93-0.45-2.05-1.38-2.66-2.2c-0.29-0.39-0.67-1.02-0.81-1.33c-0.06-0.13-0.14-0.29-0.17-0.35c-0.1-0.21-0.38-1.09-0.46-1.49
				c-0.39-1.98-0.03-3.99,1-5.67c0.24-0.39,0.81-1.13,1.1-1.42c0.3-0.3,1.03-0.87,1.44-1.12c2.12-1.31,4.8-1.51,7.1-0.55
				c1.48,0.62,2.72,1.68,3.56,3.01C97.07,106.26,96.95,109.71,95.07,112.32z"/>
			<path class="st1" d="M88.79,100.49c-1.97,0-3.7,0.72-5.1,2.1c-0.59,0.59-1.01,1.17-1.34,1.83c-0.75,1.52-0.97,3.1-0.64,4.76
				c0.33,1.68,1.34,3.27,2.74,4.31c0.98,0.73,2.1,1.2,3.28,1.37c1.94,0.27,3.87-0.21,5.4-1.36c0.42-0.32,1.11-1,1.43-1.43
				c1.97-2.59,1.94-6.26-0.06-8.8C93.1,101.49,91.04,100.49,88.79,100.49z M95.04,107.53c0.04,1.6-0.45,2.98-1.51,4.26
				c-0.17,0.21-0.34,0.4-0.37,0.43c-0.03,0.02-0.11,0.09-0.17,0.14c-0.87,0.73-1.6,1.12-2.58,1.39c-1.33,0.37-2.75,0.27-4.05-0.28
				c-1.78-0.75-3.12-2.29-3.62-4.16c-0.41-1.55-0.21-3.23,0.58-4.63c0.26-0.47,0.32-0.56,0.73-1.05c0.68-0.82,1.8-1.57,2.84-1.89
				c1.16-0.36,2.62-0.37,3.74-0.02c1.91,0.6,3.39,2.03,4.07,3.92C94.93,106.29,95.02,106.83,95.04,107.53z"/>
			<path class="st1" d="M50.63,102.09l1.3,0.05l0.78-3.23l3.11,1.17l0.7-1.11l-2.41-2.29l2.57-2.11l-0.61-1.16l-3.19,0.94
				l-0.54-3.28l-1.31-0.05l-0.78,3.23l-3.11-1.17l-0.7,1.11l2.41,2.29l-2.57,2.11l0.61,1.16l3.19-0.94L50.63,102.09z M49.41,96.58
				c0-1.15,0.93-2.08,2.08-2.08c1.14,0,2.07,0.93,2.07,2.08c0,1.15-0.93,2.08-2.07,2.08C50.34,98.66,49.41,97.73,49.41,96.58z"/>
			<path class="st1" d="M75.12,96.8c-0.22,0.18-0.37,0.43-0.37,0.74c0,0.3,0.15,0.56,0.37,0.74v0.23h1.05v-0.15
				c0.29-0.16,0.5-0.46,0.5-0.82c0-0.36-0.21-0.66-0.5-0.82v-6.04h24.49v-1.1H54.21v1.1h20.91V96.8z"/>
			<path class="st1" d="M76.17,118.83c0.2-0.07,0.37-0.18,0.52-0.33c0.27-0.27,0.44-0.65,0.44-1.05c0-0.41-0.17-0.78-0.44-1.05
				c-0.27-0.27-0.64-0.44-1.05-0.44c-0.41,0-0.78,0.17-1.05,0.44c-0.27,0.27-0.43,0.64-0.43,1.05c0,0.41,0.17,0.78,0.43,1.05v0
				c0.15,0.15,0.33,0.25,0.52,0.33v5.62H54.96l0.16-0.05l-0.4-3.3l3.32,0.02l0.26-1.29l-3.06-1.31l1.68-2.88l-0.98-0.87l-2.66,1.99
				l-1.65-2.89l-1.24,0.41l0.4,3.3l-3.32-0.02l-0.26,1.29l3.05,1.31l-1.68,2.87l0.98,0.87l2.66-1.99l1.65,2.89l0.35-0.11v0.86h46.45
				v-1.1H76.17V118.83z M52.75,121.42c-1.15,0-2.08-0.93-2.08-2.08c0-1.15,0.93-2.07,2.08-2.07c1.14,0,2.08,0.93,2.08,2.07
				C54.83,120.49,53.9,121.42,52.75,121.42z"/>
			<path class="st1" d="M107.64,119.26l-0.08-1.31l-3.3-0.48l0.88-3.21l-1.17-0.59l-2.05,2.62l-2.34-2.36l-1.1,0.72l1.24,3.08
				l-3.22,0.85l0.08,1.31l3.3,0.47L99,123.57l1.17,0.59l2.05-2.61l2.34,2.36l1.1-0.72l-1.24-3.09L107.64,119.26z M102.07,121
				c-1.15,0-2.08-0.93-2.08-2.07c0-1.15,0.93-2.08,2.08-2.08c1.15,0,2.08,0.93,2.08,2.08C104.15,120.07,103.22,121,102.07,121z"/>
			<path class="st1" d="M97.61,91.81l1.48,2.97l-3.13,1.1l0.18,1.3l3.32,0.2l-0.61,3.27l1.21,0.49l1.83-2.77l2.53,2.16l1.03-0.8
				l-1.48-2.98l3.14-1.1l-0.18-1.3l-3.32-0.2l0.61-3.27l-1.22-0.49l-1.83,2.77l-2.53-2.16L97.61,91.81z M101.54,93.69
				c1.15,0,2.08,0.93,2.08,2.07c0,1.14-0.93,2.08-2.08,2.08c-1.15,0-2.08-0.93-2.08-2.08C99.46,94.62,100.39,93.69,101.54,93.69z"/>
		</g>
	</g>
</g>
</svg>
